<?xml version="1.0" encoding="UTF-8" standalone="no"?>
<!-- Created with Inkscape (http://www.inkscape.org/) -->

<svg
   xmlns:dc="http://purl.org/dc/elements/1.1/"
   xmlns:cc="http://creativecommons.org/ns#"
   xmlns:rdf="http://www.w3.org/1999/02/22-rdf-syntax-ns#"
   xmlns:svg="http://www.w3.org/2000/svg"
   xmlns="http://www.w3.org/2000/svg"
   xmlns:sodipodi="http://sodipodi.sourceforge.net/DTD/sodipodi-0.dtd"
   xmlns:inkscape="http://www.inkscape.org/namespaces/inkscape"
   width="288.108"
   height="318.827"
   id="svg2"
   version="1.1"
   inkscape:version="0.92.4 (5da689c313, 2019-01-14)"
   sodipodi:docname="hello_kitty.svg">
  <sodipodi:namedview
     id="base"
     pagecolor="#ffffff"
     bordercolor="#666666"
     borderopacity="1.0"
     inkscape:pageopacity="0.0"
     inkscape:pageshadow="2"
     inkscape:zoom="1.4142136"
     inkscape:cx="131.15783"
     inkscape:cy="133.73963"
     inkscape:document-units="in"
     inkscape:current-layer="layer1"
     showgrid="false"
     units="in"
     inkscape:window-width="2560"
     inkscape:window-height="1377"
     inkscape:window-x="-8"
     inkscape:window-y="-8"
     inkscape:window-maximized="1"
     showguides="true"
     inkscape:guide-bbox="true" />
  <defs
     id="defs4" />
  <metadata
     id="metadata7">
    <rdf:RDF>
      <cc:Work
         rdf:about="">
        <dc:format>image/svg+xml</dc:format>
        <dc:type
           rdf:resource="http://purl.org/dc/dcmitype/StillImage" />
        <dc:title></dc:title>
      </cc:Work>
    </rdf:RDF>
  </metadata>
  <g
     transform="translate(0,-733.53275)"
     id="layer1"
     inkscape:groupmode="layer"
     inkscape:label="Layer 1">
    <g
       id="g4002"
       transform="translate(-724.61765,449.6672)">
      <path
         sodipodi:nodetypes="ccccsccsscsccccsccsccccccsccssccscccscccccccccc"
         style="fill:#000000;fill-opacity:1;fill-rule:nonzero;stroke:none"
         d="m 873.43841,302.18484 c -15.67489,-0.0882 -36.55846,3.75314 -51.76097,6.59943 -26.47743,-9.60466 -37.3611,-9.93753 -54.36315,-7.4641 -13.06445,18.38225 -14.39696,41.75329 -6.0596,57.06698 -0.52788,2.12286 0.90353,4.15056 0.22961,5.90448 -9.06338,23.58805 -11.40567,31.75504 -9.62511,48.4354 -0.68614,0.0347 -4.38284,0.90558 -5.12176,0.96126 -5.0662,1.05874 -15.58292,2.69658 -17.80488,5.65536 -0.7111,0.9469 -1.90127,2.42809 0.0447,3.36214 5.75648,2.76305 14.71804,-1.32621 22.88592,-1.62336 1.28611,6.20254 8.33467,12.16946 5.97538,18.10493 -0.93424,2.35035 -4.46946,2.83654 -6.65998,3.63557 -4.54906,2.21308 -8.17565,4.61066 -6.9696,7.97476 3.77509,2.56649 12.94241,-3.35049 18.23257,-3.49968 2.55139,4.7301 5.8018,8.76119 9.11622,12.72827 0.33331,0.49006 1.81305,1.91923 1.1276,2.54429 -5.91406,5.39296 -19.66983,13.55614 -16.73888,17.87292 5.62137,2.11849 9.80435,-4.82644 14.79099,-8.17286 1.03754,-1.5892 5.2745,-3.40705 8.18775,-3.15148 5.60077,0.49135 16.84434,8.07696 16.37629,7.9756 -15.36977,14.60468 -18.15888,28.3118 -14.02104,40.72382 -8.52211,14.22327 -13.20226,28.45339 -10.58515,43.23512 8.32066,43.065 54.74149,58.07902 79.36621,19.19371 l 20.69058,17.44416 18.63317,-18.55584 c 10.54386,9.91086 13.7069,15.12651 19.96531,18.57916 10.60369,5.84985 21.57074,5.38017 30.25788,2.12595 34.76519,-16.45695 47.74959,-55.18254 21.6772,-86.20802 2.58955,-11.64972 1.34422,-24.18441 -10.25974,-39.10956 -0.73134,-0.94066 6.93672,-5.23332 12.44406,-10.79221 4.12548,-4.1641 14.77586,-11.2321 13.44222,-16.51811 2.96251,0.6477 5.59191,1.39928 7.02339,2.509 10.78661,3.72132 14.14004,6.35112 18.2467,2.37745 2.7102,-2.62252 -1.6038,-3.57344 -8.67687,-7.26092 -4.61399,-1.69502 -7.07305,-3.97874 -10.58284,-4.82792 3.72624,-5.09943 2.74826,-12.22439 5.2159,-18.0037 9.02563,1.2581 22.57581,2.21714 20.39641,-1.85491 -2.2581,-4.21887 -11.2465,-2.98395 -19.86666,-5.15942 1.84307,-5.76323 -0.21561,-12.98237 0.22805,-19.08944 9.49125,1.31029 17.00151,1.13548 22.82151,-0.16818 5.1757,-9.90587 -10.8701,-5.49087 -18.87465,-6.90567 -1.33569,-0.0837 -2.54547,-0.14966 -3.74016,-0.18586 -0.12449,-5.065 -5.32575,-20.46947 -6.5283,-25.59173 10.42902,-25.37301 6.82284,-43.09708 -7.52251,-43.60453 3.60478,-10.46628 -6.06889,-29.90507 -15.18721,-35.39024 -17.36515,-1.29288 -23.60191,4.08339 -38.93791,12.29446 -24.83521,-18.353 -31.41573,-12.03263 -47.48865,5.83352 z"
         id="path3766"
         inkscape:connector-curvature="0" />
      <path
         style="fill:#ffffff;fill-opacity:1;fill-rule:nonzero;stroke:none"
         d="m 953.87891,290.54174 c -15.3089,1.98692 -27.86282,10.86127 -40.08114,20.57463 -31.81461,-2.03463 -63.21374,1.68383 -94.66827,7.3247 -15.38195,-3.62992 -20.66093,-12.79576 -46.42531,-10.74548 -9.34957,7.84872 -13.89982,27.95812 -8.35581,39.61847 1.07475,3.68024 8.89441,6.35183 7.27178,9.46381 -10.04332,17.37995 -13.3105,37.21995 -12.3225,57.04929 1.9974,26.69299 16.14804,44.13412 35.16675,55.4964 15.26896,-13.61928 25.83518,-17.21618 34.98807,-15.25009 11.86328,2.5483 22.21716,11.00812 35.3514,27.19883 11.17703,-12.27176 22.77225,-24.69689 36.7394,-27.57171 7.64181,-1.57289 16.98886,0.26267 24.56243,5.12593 3.87701,2.48956 7.28928,5.77254 9.77012,9.79787 0.89792,1.45691 4.03048,-0.24788 6.77278,-1.72242 5.24686,-2.82125 11.7259,-8.16518 16.32485,-11.59218 21.06297,-18.65267 23.5946,-54.66209 14.37606,-81.89336 -3.31615,-11.56907 -7.43763,-18.01483 -14.53408,-26.80671 1.44415,-8.7627 5.31668,-20.22302 6.60013,-30.6318 1.39928,-11.34812 -0.2789,-21.44636 -11.53666,-25.43618 z m -25.15106,113.08512 c 11.85315,1.30222 13.21214,24.17401 0.73089,22.71748 -9.33893,-3.45845 -11.30094,-21.36864 -0.73089,-22.71748 z m -118.2232,7.24512 c 11.91973,1.28586 12.85822,25.38563 0.33123,23.91645 -9.33894,-3.45844 -10.90128,-22.56762 -0.33123,-23.91645 z m 63.78775,17.69969 c 6.31715,-0.45053 10.51039,3.14954 11.1991,7.62436 1.07469,6.98268 -5.08833,10.02031 -11.01566,10.48788 -6.71784,0.52992 -13.75504,-2.87624 -12.49168,-9.80107 1.12785,-6.1821 6.59456,-7.90368 12.30824,-8.31117 z"
         id="path3834"
         sodipodi:nodetypes="ccccccccscsssscccsccccccccssss"
         inkscape:connector-curvature="0" />
      <g
         id="g3852"
         transform="translate(319.70241,15.595239)">
        <g
           id="g3842">
          <path
             sodipodi:nodetypes="cssccsc"
             id="path3940"
             d="m 640.91764,427.16156 c 0.2496,1.71346 1.86538,3.04776 4.28566,4.17574 3.5124,1.63697 8.93993,2.15553 13.90354,4.13558 9.68735,3.86442 18.29918,6.43606 19.38561,4.36244 1.9062,-3.24873 -0.59625,-5.67612 -7.31212,-8.99774 -2.44122,-0.4104 -5.90044,-2.6375 -9.48796,-3.72084 -9.57374,-2.89103 -20.35479,-5.61025 -20.77473,0.0448 z"
             style="color:#000000;font-style:normal;font-variant:normal;font-weight:normal;font-stretch:normal;font-size:medium;line-height:normal;font-family:'Bitstream Vera Sans';-inkscape-font-specification:'Bitstream Vera Sans';text-indent:0;text-align:start;text-decoration:none;text-decoration-line:none;letter-spacing:normal;word-spacing:normal;text-transform:none;writing-mode:lr-tb;direction:ltr;text-anchor:start;display:inline;overflow:visible;visibility:visible;fill:#000000;fill-opacity:1;stroke:none;stroke-width:1px;marker:none;enable-background:accumulate"
             inkscape:connector-curvature="0" />
          <path
             style="color:#000000;font-style:normal;font-variant:normal;font-weight:normal;font-stretch:normal;font-size:medium;line-height:normal;font-family:'Bitstream Vera Sans';-inkscape-font-specification:'Bitstream Vera Sans';text-indent:0;text-align:start;text-decoration:none;text-decoration-line:none;letter-spacing:normal;word-spacing:normal;text-transform:none;writing-mode:lr-tb;direction:ltr;text-anchor:start;display:inline;overflow:visible;visibility:visible;fill:#000000;fill-opacity:1;stroke:none;stroke-width:1px;marker:none;enable-background:accumulate"
             d="m 666.57721,383.21251 c 5.44392,-0.16573 11.47564,0.0896 16.2487,-0.65451 3.42585,-0.53411 6.88391,-1.3947 6.86487,-3.55782 -0.037,-4.19956 -10.15873,-2.11241 -17.46163,-3.29409 0.11639,0.29098 -28.34065,2.57227 -28.23199,8.18991 0.14041,7.25912 13.44563,0.10134 22.58005,-0.68349 z"
             id="path3942"
             sodipodi:nodetypes="csscsc"
             inkscape:connector-curvature="0" />
          <path
             inkscape:transform-center-y="2.5088703"
             inkscape:transform-center-x="1.7192308"
             sodipodi:nodetypes="csscs"
             id="path3944"
             d="m 649.65815,405.0373 c 0.99041,5.78294 12.93441,4.31124 19.05802,4.52933 5.48882,0.19549 15.70422,2.06371 16.321,-2.45042 0.59721,-4.37096 -6.37832,-3.383 -12.32116,-4.83182 -8.09432,1.05613 -23.88284,-2.06415 -23.05786,2.75291 z"
             style="color:#000000;font-style:normal;font-variant:normal;font-weight:normal;font-stretch:normal;font-size:medium;line-height:normal;font-family:'Bitstream Vera Sans';-inkscape-font-specification:'Bitstream Vera Sans';text-indent:0;text-align:start;text-decoration:none;text-decoration-line:none;letter-spacing:normal;word-spacing:normal;text-transform:none;writing-mode:lr-tb;direction:ltr;text-anchor:start;display:inline;overflow:visible;visibility:visible;fill:#000000;fill-opacity:1;stroke:none;stroke-width:1px;marker:none;enable-background:accumulate"
             inkscape:connector-curvature="0" />
        </g>
        <g
           id="g3847">
          <path
             style="color:#000000;font-style:normal;font-variant:normal;font-weight:normal;font-stretch:normal;font-size:medium;line-height:normal;font-family:'Bitstream Vera Sans';-inkscape-font-specification:'Bitstream Vera Sans';text-indent:0;text-align:start;text-decoration:none;text-decoration-line:none;letter-spacing:normal;word-spacing:normal;text-transform:none;writing-mode:lr-tb;direction:ltr;text-anchor:start;display:inline;overflow:visible;visibility:visible;fill:#000000;fill-opacity:1;stroke:none;stroke-width:1px;marker:none;enable-background:accumulate"
             d="m 471.41764,440.51389 c 4.08021,5.93745 -12.95446,11.64368 -17.85472,14.86022 -7.65209,5.02284 -15.10277,15.07749 -19.53861,12.34328 -5.41799,-3.3396 8.44794,-11.91704 14.49766,-16.45543 9.52911,-6.7797 19.42619,-15.7968 22.89567,-10.74807 z"
             id="path3934"
             sodipodi:nodetypes="csscs"
             inkscape:connector-curvature="0" />
          <path
             sodipodi:nodetypes="csssc"
             id="path3936"
             d="m 454.33626,401.86745 c 0.66142,4.7773 -15.7296,1.95105 -21.17955,3.41734 -8.49067,2.28439 -24.29287,8.65353 -27.7439,4.13009 -4.06429,-5.32727 17.94916,-9.09968 23.23298,-10.02531 1.06106,-0.18588 22.83489,-5.08817 25.69047,2.47788 z"
             style="color:#000000;font-style:normal;font-variant:normal;font-weight:normal;font-stretch:normal;font-size:medium;line-height:normal;font-family:'Bitstream Vera Sans';-inkscape-font-specification:'Bitstream Vera Sans';text-indent:0;text-align:start;text-decoration:none;text-decoration-line:none;letter-spacing:normal;word-spacing:normal;text-transform:none;writing-mode:lr-tb;direction:ltr;text-anchor:start;display:inline;overflow:visible;visibility:visible;fill:#000000;fill-opacity:1;stroke:none;stroke-width:1px;marker:none;enable-background:accumulate"
             inkscape:connector-curvature="0" />
          <path
             style="color:#000000;font-style:normal;font-variant:normal;font-weight:normal;font-stretch:normal;font-size:medium;line-height:normal;font-family:'Bitstream Vera Sans';-inkscape-font-specification:'Bitstream Vera Sans';text-indent:0;text-align:start;text-decoration:none;text-decoration-line:none;letter-spacing:normal;word-spacing:normal;text-transform:none;writing-mode:lr-tb;direction:ltr;text-anchor:start;display:inline;overflow:visible;visibility:visible;fill:#000000;fill-opacity:1;stroke:none;stroke-width:1px;marker:none;enable-background:accumulate"
             d="m 455.76546,423.40048 c 1.96121,4.98088 -9.39968,5.82564 -14.06151,8.22928 -8.04434,4.14767 -18.62691,10.13101 -20.14574,5.02927 -0.80714,-2.71119 2.16565,-4.11731 7.56636,-6.79173 8.09344,-4.00785 24.12574,-12.85455 26.64089,-6.46682 z"
             id="path3938"
             sodipodi:nodetypes="cssss"
             inkscape:connector-curvature="0" />
        </g>
      </g>
      <path
         id="path3827"
         d="m 881.07514,437.81163 c 0,2.84713 -3.12251,5.15517 -6.97432,5.15517 -3.85182,0 -6.97433,-2.30804 -6.97433,-5.15517 0,-2.84714 3.12251,-5.15518 6.97433,-5.15518 3.85181,0 6.97432,2.30804 6.97432,5.15518 z"
         style="fill:#ffff00;fill-opacity:1;fill-rule:nonzero;stroke:none"
         inkscape:connector-curvature="0" />
      <path
         style="fill:#ff8080;fill-opacity:1;fill-rule:nonzero;stroke:none"
         d="m 864.99764,583.23667 c -18.95396,-17.42364 -36.48515,-32.75212 -47.87238,-44.85658 -5.28105,-5.61368 -6.13805,-8.57023 -3.20677,-11.06297 3.16021,-2.68744 6.72161,-7.81279 7.43905,-10.70585 0.34578,-1.39434 1.0268,-4.49515 3.80205,-7.17677 5.71288,-5.52013 6.84304,-9.65198 8.05184,-15.99679 0.95927,-12.27598 -8.62171,-19.03991 -19.63425,-19.85961 -2.41961,-0.32826 -4.17159,-1.02153 -4.17159,-1.65071 0,-0.59662 1.67961,-2.22421 3.73247,-3.61686 2.05286,-1.39266 3.93008,-2.77235 4.17159,-3.06598 0.71837,-0.87339 6.35817,-2.42655 9.66053,-2.66045 3.07791,-0.218 5.86281,0.26893 11.18925,1.95639 6.79966,2.1542 14.66828,11.1488 20.84586,20.30356 4.37597,6.4849 6.95153,6.74904 10.48755,1.07557 4.86426,-7.8046 17.66951,-18.75246 26.1819,-23.00774 5.02494,-2.51194 9.32254,-2.41987 14.05842,-2.17812 4.65811,0.23778 9.40939,0.92699 13.53753,3.53923 2.48905,1.57503 4.77077,3.50275 5.07049,4.28381 0.65175,1.69846 0.94579,1.47688 -3.75132,2.82702 -6.72919,2.11662 -9.61537,7.27892 -12.36361,12.8764 -1.20547,1.24105 -1.32237,8.37838 -0.18362,11.21068 0.77279,3.47349 2.73377,5.9604 4.94606,8.71313 3.18664,2.92456 3.63932,6.72432 5.00155,10.47676 0.956,2.51829 2.39119,5.49265 3.55011,7.11946 0.92864,1.30355 4.4723,2.15998 2.6996,5.26937 -2.69496,4.72706 -12.25092,16.38897 -18.71621,22.70149 l -38.56848,37.65715 c -0.7808,0 -3.46173,-1.87722 -5.95762,-4.17159 z"
         id="path3800"
         sodipodi:nodetypes="cssssccssssssssasscccccssscc"
         inkscape:connector-curvature="0" />
      <g
         id="g3813"
         transform="translate(324.06665,13.173441)"
         style="fill:#ffffff">
        <path
           transform="translate(0,-27.64025)"
           id="path3804"
           d="m 611.3484,533.70934 c -4.18386,-1.47439 -7.46685,-5.98968 -7.63652,-10.50299 -0.19719,-3.16403 -1.51874,-5.89486 -3.8206,-8.0802 -8.15467,-6.72177 -5.83929,-19.26438 4.43128,-24.00455 6.77471,-3.12673 12.81437,-1.54167 19.46429,5.10825 9.95162,9.95162 10.84986,26.36598 1.9002,34.72388 -3.73868,3.49147 -9.24669,4.55 -14.33865,2.75561 z"
           style="fill:#ffffff;fill-opacity:1;fill-rule:nonzero;stroke:none"
           sodipodi:nodetypes="cccsssc"
           inkscape:connector-curvature="0" />
        <path
           transform="translate(0,-27.64025)"
           id="path3807"
           d="m 598.61407,611.5757 c -11.15837,-2.30927 -18.75276,-10.80132 -19.92605,-22.28133 l -0.46449,-4.54477 6.39121,-6.58672 c 5.75988,-5.93609 14.82638,-16.93268 23.89277,-28.97912 3.24286,-4.30876 3.39703,-4.3936 7.98404,-4.3936 5.45657,0 12.32089,-1.87407 14.67817,-4.00739 1.57158,-1.42225 1.78668,-1.35081 4.44363,1.47595 8.79573,9.35789 10.12751,28.24376 3.05643,43.34311 -2.74767,5.86728 -4.19784,7.94524 -9.76196,13.98793 -3.23277,3.51082 -12.11665,9.58086 -16.40946,11.212 -4.36096,1.65703 -8.50183,1.88785 -13.88429,0.77394 z"
           style="fill:#ffffff;fill-opacity:1;fill-rule:nonzero;stroke:none"
           inkscape:connector-curvature="0" />
        <path
           transform="translate(0,-27.64025)"
           id="path3809"
           d="m 482.30445,611.87915 c -7.31344,-2.78135 -16.63836,-9.94329 -20.84288,-16.00825 -9.62993,-13.89103 -9.45448,-36.94821 0.38069,-50.03078 1.99853,-2.6584 2.34081,-2.80153 4.07656,-1.70467 2.32362,1.46835 8.81365,3.83507 12.62079,4.60243 2.20274,0.44398 3.73116,1.85566 6.96617,6.43414 4.09424,5.79454 24.41685,26.75097 28.59971,29.49169 1.18762,0.77816 2.67066,2.37029 3.29563,3.53807 1.01825,1.90262 0.81199,2.70049 -1.98511,7.6787 -6.06803,10.79978 -13.73052,15.72998 -25.20749,16.21901 -3.6227,0.15436 -7.17953,0.0552 -7.90407,-0.22034 z"
           style="fill:#ffffff;fill-opacity:1;fill-rule:nonzero;stroke:none"
           inkscape:connector-curvature="0" />
        <path
           transform="translate(0,-27.64025)"
           id="path3811"
           d="m 473.52635,537.95927 c -4.93749,-1.95007 -7.8773,-6.79894 -8.5377,-14.08195 -1.29596,-14.29211 12.02333,-29.98844 25.47032,-30.01589 4.0336,-0.008 7.06038,1.2666 10.38876,4.37557 5.32934,4.97803 4.33046,14.06796 -2.24865,20.4631 -2.6654,2.59088 -4.21132,5.07549 -5.17281,8.31379 -1.8051,6.07964 -3.89653,9.49939 -6.54855,10.70773 -3.91975,1.78596 -9.19343,1.87983 -13.35137,0.23765 z"
           style="fill:#ffffff;fill-opacity:1;fill-rule:nonzero;stroke:none"
           inkscape:connector-curvature="0" />
      </g>
      <g
         id="g3899"
         transform="translate(198.6434,107.4296)">
        <path
           sodipodi:nodetypes="cssccacssccscc"
           id="rect3763"
           d="m 688.84228,180.95708 c 3.68851,-3.07175 8.4283,-3.87423 13.40757,-3.18118 7.54796,1.05058 14.4918,6.49988 20.3131,11.72787 5.57587,5.00757 7.07154,3.44682 9.12595,13.73785 9.74359,0.53809 14.07456,4.32374 18.86089,7.83619 0,-0.4782 14.92158,-5.42093 22.14947,-3.51307 6.54543,1.72772 12.25199,6.43198 15.87502,12.66623 1.39216,5.51929 1.64132,8.49791 1.12481,13.92242 -1.60044,16.80833 -9.98944,31.11424 -21.16702,35.43865 -15.21248,5.88545 -30.43538,-14.37912 -28.19353,-17.05799 -10.74704,3.03812 -19.32971,-0.10768 -26.49036,-7.31639 -8.44806,3.86998 -17.10701,5.63096 -26.06754,4.37615 -8.43776,-1.1816 -15.97512,-6.58593 -18.35785,-15.85659 -4.30776,-21.15145 1.50037,-41.15452 19.41949,-52.78014 z"
           style="fill:#000000;fill-opacity:1;fill-rule:nonzero;stroke:none"
           inkscape:connector-curvature="0" />
        <g
           transform="translate(125.11063,-95.391458)"
           id="g3892">
          <path
             style="fill:#ff0000;fill-opacity:1;fill-rule:nonzero;stroke:none"
             d="m 604.76422,341.4293 c -2.12621,-0.0239 -4.33415,-1.07388 -5.89199,-2.26962 -1.88749,-0.86841 -3.65177,-1.98994 -5.2997,-3.53071 -1.60148,-0.86403 -2.24422,-2.90092 -3.54349,-4.16239 -0.69132,-2.14916 -1.88118,-4.1603 -2.05841,-6.37406 -1.16582,-2.30893 -0.61935,-4.61486 0.25953,-6.86107 0.2088,-1.85578 1.64194,-3.20124 1.6445,-5.12344 1.09206,-1.7788 2.21142,-3.78436 4.17363,-4.84195 1.21391,-1.29891 3.26358,-1.02514 4.42632,-2.29317 2.10559,-0.64874 4.29505,-1.02052 6.49631,-0.75178 2.27535,0.0677 4.56674,0.13297 6.80341,0.59499 2.09134,0.95759 4.58481,0.93704 6.22566,2.71153 1.62526,0.69958 2.1779,2.44105 3.38218,3.57606 1.35162,1.45985 2.70395,3.08031 3.10651,5.08429 1.76051,1.79434 1.40268,4.53483 1.65887,6.83961 0.10418,1.96471 0.11002,3.95885 -0.32516,5.88809 -1.47278,1.80122 -1.91079,4.07542 -3.42635,5.82669 -1.53479,1.70758 -3.09806,3.45758 -5.33362,4.23505 -3.1503,2.27187 -7.25146,1.74571 -10.89903,1.52108 -0.46607,-0.0289 -0.93243,-0.054 -1.39917,-0.0692 z"
             id="path3870"
             inkscape:connector-curvature="0" />
          <path
             style="fill:#ff0000;fill-opacity:1;fill-rule:nonzero;stroke:none"
             d="m 631.28223,360.65291 c -2.81871,-0.80025 -5.22942,-2.72682 -7.59712,-4.38277 -1.91247,-1.33756 -2.8984,-3.24771 -4.35404,-4.93079 -1.02039,-1.17982 -2.16546,-3.48957 -1.79689,-4.2217 0.61783,-1.22725 3.53371,-3.95499 5.94962,-3.07219 17.4492,6.37615 24.18484,-15.41391 12.14327,-21.84061 -2.01137,-1.07349 -4.43762,-1.36291 -6.32436,-2.47258 -2.70472,-1.59077 -2.00796,-6.94126 1.25161,-7.74598 2.18768,-0.54009 3.82581,-1.75329 6.1354,-1.8811 6.24203,-0.34544 12.71986,-0.87827 18.78145,0.99112 2.12743,0.6561 3.70522,2.3604 4.44283,4.54111 0.58652,1.73403 1.06955,3.20824 1.30997,5.00861 0.70043,5.24523 -1.01034,10.91287 -2.61143,16.10676 -0.68633,2.22643 -2.05642,4.27415 -2.97481,6.36997 -1.17796,2.68817 -2.78582,5.24464 -4.5304,7.59566 -2.21818,2.98925 -4.79012,5.96121 -7.93753,7.90762 -1.82718,1.12997 -4.51257,1.28241 -6.176,2.20962 -1.55118,0.86465 -4.14442,0.26217 -5.71157,-0.18275 z"
             id="path3874"
             sodipodi:nodetypes="csssssssssssssssss"
             inkscape:connector-curvature="0" />
          <path
             style="fill:#ff0000;fill-opacity:1;fill-rule:nonzero;stroke:none"
             d="m 626.19715,335.40536 c 0.96237,-2.65911 1.95716,-7.87794 5.23442,-8.14674 0.96394,0.51073 1.6884,1.38001 2.28886,2.27199 2.58731,4.2887 -5.08257,12.28215 -7.52328,5.87475 z"
             id="path3876"
             sodipodi:nodetypes="cccc"
             inkscape:connector-curvature="0" />
          <path
             style="fill:#ff0000;fill-opacity:1;fill-rule:nonzero;stroke:none"
             d="m 577.73824,314.7439 c 0.29016,-2.11307 1.72493,-3.89598 3.45337,-5.06186 2.13062,-1.29765 3.9212,-1.90671 6.12976,-0.69512 -0.58592,4.45495 -2.59219,10.46594 -6.47699,12.97604 -2.34667,-1.5921 -3.20697,-4.43578 -3.10614,-7.21906 z"
             id="path3878"
             sodipodi:nodetypes="ccccc"
             inkscape:connector-curvature="0" />
          <path
             style="fill:#ff0000;fill-opacity:1;fill-rule:nonzero;stroke:none"
             d="m 569.13489,339.2599 c -3.42779,-0.0547 -6.41402,-1.09645 -9.4154,-2.32425 -2.66411,-1.08983 -5.20446,-2.6967 -7.32097,-5.15174 -2.23045,-2.5872 -4.35633,-5.68734 -4.04203,-9.32894 0.28519,-3.30423 0.92379,-6.6616 2.20124,-9.91191 1.63229,-4.15315 3.27765,-8.50379 6.01149,-12.05268 1.99337,-2.58766 3.99655,-5.48244 6.32673,-7.92991 2.65942,-2.7933 5.71772,-5.38178 9.19412,-6.92761 7.14426,-3.1768 16.57603,-0.96948 21.387,5.42465 2.27986,3.03009 6.20063,6.58304 4.56285,10.42316 -2.04007,4.78336 -8.88849,0.30597 -12.74426,-0.51824 -3.81182,-0.81482 -6.81665,0.16613 -9.74903,2.37117 -3.21393,2.41676 -5.1617,6.15289 -4.85458,10.21409 0.30823,4.0758 1.81234,7.5593 4.21061,10.68723 2.49246,3.25078 7.12316,3.73413 9.50262,6.84643 2.9644,3.8774 -1.80254,7.18443 -5.47912,7.66845 -3.26563,0.42991 -6.50096,0.56263 -9.79127,0.5101 z"
             id="path3880"
             sodipodi:nodetypes="cssssssssssssssss"
             inkscape:connector-curvature="0" />
        </g>
      </g>
    </g>
  </g>
</svg>
